<?xml version="1.0" encoding="utf-8"?>
<!-- Generator: Adobe Illustrator 21.1.0, SVG Export Plug-In . SVG Version: 6.00 Build 0)  -->
<svg version="1.1" id="Capa_1" xmlns="http://www.w3.org/2000/svg" xmlns:xlink="http://www.w3.org/1999/xlink" x="0px" y="0px"
	 width="512px" height="512px" viewBox="0 0 512 512" style="enable-background:new 0 0 512 512;" xml:space="preserve">
<style type="text/css">
	.st0{fill:#FFFFFF;}
	.st1{font-family:'Tahoma';}
	.st2{font-size:215px;}
</style>
<path class="st0" d="M16,192c-8.8,0-16-7.2-16-16V16C0,7.2,7.2,0,16,0h160c8.8,0,16,7.2,16,16s-7.2,16-16,16H32v144
	C32,184.8,24.8,192,16,192z"/>
<path class="st0" d="M496,192c-8.8,0-16-7.2-16-16V32H336c-8.8,0-16-7.2-16-16s7.2-16,16-16h160c8.8,0,16,7.2,16,16v160
	C512,184.8,504.8,192,496,192z"/>
<path class="st0" d="M176,512H16c-8.8,0-16-7.2-16-16V336c0-8.8,7.2-16,16-16s16,7.2,16,16v144h144c8.8,0,16,7.2,16,16
	S184.8,512,176,512z"/>
<path class="st0" d="M496,512H336c-8.8,0-16-7.2-16-16s7.2-16,16-16h144V336c0-8.8,7.2-16,16-16s16,7.2,16,16v160
	C512,504.8,504.8,512,496,512z"/>
<text transform="matrix(1 0 0 1 192 338.9933)" class="st0 st1 st2">V</text>
<path class="st0" d="M213.1,182.7c-1.1-0.9-4.8-3.9-10.4-4.1c-6.5-0.2-10.8,3.5-11.7,4.3"/>
<path class="st0" d="M321.7,182.7c-1.1-0.9-4.8-3.9-10.4-4.1c-6.5-0.2-10.8,3.5-11.7,4.3"/>
</svg>
